<?xml version="1.0" standalone="no"?><!DOCTYPE svg PUBLIC "-//W3C//DTD SVG 1.1//EN" "http://www.w3.org/Graphics/SVG/1.1/DTD/svg11.dtd"><svg t="1698838475154" class="icon" viewBox="0 0 1024 1024" version="1.1" xmlns="http://www.w3.org/2000/svg" p-id="4159" xmlns:xlink="http://www.w3.org/1999/xlink" width="200" height="200"><path d="M789.19 227.34c-43.14 0-67.57 29.14-97.73 83.09-60.95 108.54-110.96 150.41-230.57 221.16-179.29 106-319.9 190.87-321.3 190.87l-45.43 72.15h6.74a1343.319 1343.319 0 0 1 259.08-110.96c-21.25 24.43-38.17 44.92-36.14 48.74 0.37 0.87 1.22 1.42 2.16 1.4 7.13 0 14.25 0.76 21.63 0.76a561.469 561.469 0 0 0 156.26-26.72 307.283 307.283 0 0 0 61.84-25.45l8.27-0.89 41.86 29.39L625.93 732v21.12l-32.96 28.12-4.2 15.14h175.6l-6.87-18.2-83.35-25.45-9.15-24.42 8.78-72.15c60.88-24.77 106.72-76.54 123.94-139.97 30.66-113.5 44.92-130.94 85.38-169.11l46.83-39.32-46.83-39.96a119.108 119.108 0 0 0-93.91-40.46z m0 0" p-id="4160"></path></svg>